<svg viewBox="0 0 208.35 167.78" xmlns:xlink="http://www.w3.org/1999/xlink" xmlns="http://www.w3.org/2000/svg" data-name="Layer 1" id="Layer_1"><defs><style>.cls-1{fill:#175db3;}.cls-2{fill:#ef7d00;}.cls-3{fill:#2660a8;}.cls-4{fill:url(#linear-gradient);}</style><linearGradient gradientUnits="userSpaceOnUse" gradientTransform="matrix(1, 0, 0, -1, 0, 170)" y2="135.52" x2="121.46" y1="111.17" x1="97.12" id="linear-gradient"><stop stop-color="#2660a8" offset="0"></stop><stop stop-color="#3061a0" offset="0.1"></stop><stop stop-color="#4a658a" offset="0.27"></stop><stop stop-color="#756b66" offset="0.49"></stop><stop stop-color="#af7436" offset="0.75"></stop><stop stop-color="#ef7d00" offset="1"></stop></linearGradient></defs><path d="M30.52,125.17H45.91v3.94H40.27v17H36.14v-17H30.52Z" class="cls-1"></path><path d="M51.17,131.14v2.57a4,4,0,0,1,1.74-2.13,5.33,5.33,0,0,1,2.81-.74v4.31a4.41,4.41,0,0,0-3.17.71,3.44,3.44,0,0,0-1.38,3.08v7.15H47.32v-15Z" class="cls-1"></path><path d="M110.79,125.17h15.39v3.94h-5.65v17h-4.12v-17h-5.62Z" class="cls-2"></path><path d="M131.44,131.14v2.57a4,4,0,0,1,1.73-2.13,5.38,5.38,0,0,1,2.81-.74v4.31a4.4,4.4,0,0,0-3.16.71,3.44,3.44,0,0,0-1.38,3.08v7.15h-3.85v-15Z" class="cls-2"></path><path d="M158.9,135c0,.64.91,1.18,2.72,1.64a13.45,13.45,0,0,1,1.74.5,7,7,0,0,1,1.56.8,3.65,3.65,0,0,1,1.25,1.39,4.43,4.43,0,0,1,.44,2,4.12,4.12,0,0,1-1.73,3.56,7.2,7.2,0,0,1-4.27,1.23q-4.61,0-6.28-3.56l3.35-1.88a2.8,2.8,0,0,0,2.93,1.94c1.37,0,2.06-.43,2.06-1.29,0-.63-.91-1.18-2.72-1.64a17.39,17.39,0,0,1-1.73-.54,8.81,8.81,0,0,1-1.56-.79,3.54,3.54,0,0,1-1.27-1.34,4.07,4.07,0,0,1-.43-1.93,4.16,4.16,0,0,1,1.61-3.47,6.45,6.45,0,0,1,4.07-1.28,6.71,6.71,0,0,1,3.31.82,6,6,0,0,1,2.36,2.34l-3.28,1.8a2.46,2.46,0,0,0-2.39-1.53,2.11,2.11,0,0,0-1.24.35A1,1,0,0,0,158.9,135Z" class="cls-2"></path><path d="M177.83,131.18v3.72h-3.39v6.23a1.48,1.48,0,0,0,.39,1.14,1.79,1.79,0,0,0,1.14.4,16.64,16.64,0,0,0,1.86,0v3.5q-3.93.45-5.59-.73c-1.11-.79-1.66-2.22-1.66-4.3V134.9H168v-3.72h2.61v-3l3.86-1.17v4.2Z" class="cls-2"></path><path d="M142.63,131.18v8c0,1.91.89,3.08,3,3.08s3-1.18,3-3.08v-8h3.84v8.09a9.21,9.21,0,0,1-.48,3.14,5.15,5.15,0,0,1-1.59,2.13,8,8,0,0,1-9.48,0,5.42,5.42,0,0,1-1.62-2.13,8.15,8.15,0,0,1-.46-3.14v-8.09Z" class="cls-2"></path><path d="M69.33,132.49v-1.77h3.85v14.95H69.33V143.9a5.86,5.86,0,0,1-4.87,2.19,6.81,6.81,0,0,1-5.14-2.28,8.43,8.43,0,0,1,0-11.2,6.76,6.76,0,0,1,5.14-2.3A5.86,5.86,0,0,1,69.33,132.49Zm-8.28,5.71A3.93,3.93,0,1,0,65,134.26,3.93,3.93,0,0,0,61.05,138.2Z" class="cls-1"></path><path d="M88,132.49v-7.74h3.86v20.92H88V143.9a5.75,5.75,0,0,1-4.84,2.19A6.87,6.87,0,0,1,78,143.81a8.46,8.46,0,0,1,0-11.2,6.82,6.82,0,0,1,5.17-2.3A5.75,5.75,0,0,1,88,132.49Zm-8.27,5.71a3.93,3.93,0,1,0,3.93-3.94A3.93,3.93,0,0,0,79.73,138.2Z" class="cls-1"></path><path d="M109.21,139.68H97.92q.73,2.82,4.22,2.82a4,4,0,0,0,3.36-1.5l3.11,1.8a7.43,7.43,0,0,1-6.53,3.2,8.08,8.08,0,0,1-6-2.24,8.26,8.26,0,0,1,0-11.3,7.53,7.53,0,0,1,5.69-2.28,7,7,0,0,1,5.43,2.28,7.9,7.9,0,0,1,2.15,5.63A10.67,10.67,0,0,1,109.21,139.68Zm-11.35-3h7.64a3.65,3.65,0,0,0-3.72-3,4.07,4.07,0,0,0-2.58.79A3.77,3.77,0,0,0,97.86,136.68Z" class="cls-1"></path><circle r="5.75" cy="27.17" cx="102.19" class="cls-2"></circle><circle r="7.71" cy="53.78" cx="74.64" class="cls-3"></circle><circle r="7.71" cy="77.16" cx="96.33" class="cls-3"></circle><circle r="5.39" cy="26.82" cx="118.8" class="cls-2"></circle><circle r="5.39" cy="26.82" cx="136.04" class="cls-2"></circle><circle r="5.39" cy="66.54" cx="118.8" class="cls-2"></circle><circle r="7.82" cy="100.98" cx="96.45" class="cls-3"></circle><path d="M123.88,44.18A5.43,5.43,0,0,0,117.27,41a5.36,5.36,0,0,0-3.67,4h0a3.65,3.65,0,0,1-1.13,1.79A11.06,11.06,0,0,1,102,48.05a13.25,13.25,0,0,1-1.86-.89,7.52,7.52,0,0,0-1-.46l-.19-.07a7.68,7.68,0,1,0-.18,14.51,7.55,7.55,0,0,0,3.88-3,9.05,9.05,0,0,0,.59-1h0s4.9-8.19,11.13-7.24a4.55,4.55,0,0,1,1.46.73h0a5.32,5.32,0,0,0,4.74.67A5.41,5.41,0,0,0,124,44.49C124,44.39,123.92,44.28,123.88,44.18Z" class="cls-4"></path></svg>