<svg viewBox="0 0 208.35 167.78" xmlns:xlink="http://www.w3.org/1999/xlink" xmlns="http://www.w3.org/2000/svg" data-name="Layer 1" id="Layer_1"><defs><style>.cls-1{fill:#ef7d00;}.cls-2{fill:#2660a8;}.cls-3{fill:url(#linear-gradient);}</style><linearGradient gradientUnits="userSpaceOnUse" gradientTransform="matrix(1, 0, 0, -1, 0, 170)" y2="123" x2="124.99" y1="93.68" x1="95.68" id="linear-gradient"><stop stop-color="#2660a8" offset="0"></stop><stop stop-color="#3061a0" offset="0.1"></stop><stop stop-color="#4a658a" offset="0.27"></stop><stop stop-color="#756b66" offset="0.49"></stop><stop stop-color="#af7436" offset="0.75"></stop><stop stop-color="#ef7d00" offset="1"></stop></linearGradient></defs><circle r="6.93" cy="38.19" cx="101.78" class="cls-1"></circle><circle r="9.29" cy="70.24" cx="68.6" class="cls-2"></circle><circle r="9.29" cy="98.4" cx="94.72" class="cls-2"></circle><circle r="6.49" cy="37.77" cx="121.78" class="cls-1"></circle><circle r="6.49" cy="37.77" cx="142.55" class="cls-1"></circle><circle r="6.49" cy="85.61" cx="121.78" class="cls-1"></circle><circle r="9.42" cy="127.09" cx="94.87" class="cls-2"></circle><path d="M127.9,58.68a6.5,6.5,0,0,0-12.38,1h0a4.39,4.39,0,0,1-1.36,2.15,13.32,13.32,0,0,1-12.66,1.48,17,17,0,0,1-2.24-1.07,8.68,8.68,0,0,0-1.2-.55l-.23-.09a9.15,9.15,0,0,0-6.48,0,9.29,9.29,0,0,0,6.26,17.48,9.12,9.12,0,0,0,4.68-3.61,11.26,11.26,0,0,0,.71-1.21h0s5.9-9.86,13.4-8.72a5.49,5.49,0,0,1,1.76.88h0A6.52,6.52,0,0,0,128,59.06C128,58.93,128,58.81,127.9,58.68Z" class="cls-3"></path></svg>